# xmcd
#
# Track frame offsets:
#  150
#  12380
#  23555
#  40182
#  53825
#  69650
#  89957
#  109467
#  122877
#
# Disc length: 1855 seconds
#
# Revision: 0
# Processed by: cddbd v1.4PL0 Copyright (c) Steve Scherf et al.
# Submitted via: AltoMP3_Maker 3.0
#
DISCID=7e073d09
DTITLE=Ronny McKinley - Plain As Day
DYEAR=1900
DGENRE=
TTITLE0=Plain As Day
TTITLE1=Second Time Around
TTITLE2=I Stand
TTITLE3=24 Hour Surveillance
TTITLE4=The Rescue
TTITLE5=Double Yellow Lines
TTITLE6=I Don't Remember
TTITLE7=Standing In Fire
TTITLE8=Bull By The Horns
EXTD=
EXTT0=
EXTT1=
EXTT2=
EXTT3=
EXTT4=
EXTT5=
EXTT6=
EXTT7=
EXTT8=
PLAYORDER=
